# Blender 4.5.0
# www.blender.org
mtllib chair.mtl
o Cube
v -0.195000 0.450000 0.165000
v -0.195000 0.400000 -0.185000
v 0.215000 0.450000 0.165000
v 0.215000 0.400000 -0.185000
v -0.195000 0.450000 -0.235000
v -0.195000 0.400000 -0.235000
v 0.215000 0.400000 -0.235000
v 0.215000 0.450000 -0.235000
v -0.195000 0.900000 -0.285000
v 0.215000 0.900000 -0.285000
v -0.195000 0.400000 0.215000
v 0.215000 0.400000 0.215000
v 0.235000 0.400000 -0.185000
v 0.235000 0.450000 0.165000
v 0.235000 0.450000 -0.235000
v 0.235000 0.400000 -0.235000
v 0.235000 0.900000 -0.285000
v 0.235000 0.400000 0.215000
v -0.215000 0.400000 -0.185000
v -0.215000 0.450000 0.165000
v -0.215000 0.450000 -0.235000
v -0.215000 0.400000 -0.235000
v -0.215000 0.900000 -0.285000
v -0.215000 0.400000 0.215000
v -0.195000 0.360000 0.165000
v -0.195000 0.400000 0.125000
v -0.195000 0.380000 0.159641
v -0.195000 0.394641 0.145000
v 0.215000 0.400000 0.125000
v 0.215000 0.360000 0.165000
v 0.215000 0.394641 0.145000
v 0.215000 0.380000 0.159641
v -0.195000 0.450000 0.175000
v -0.195000 0.410000 0.215000
v -0.195000 0.444641 0.195000
v -0.195000 0.430000 0.209641
v 0.215000 0.410000 0.215000
v 0.215000 0.450000 0.175000
v 0.215000 0.430000 0.209641
v 0.215000 0.444641 0.195000
v 0.235000 0.360000 0.165000
v 0.235000 0.400000 0.125000
v 0.235000 0.440000 0.165000
v 0.235000 0.400000 0.205000
v 0.235000 0.380000 0.159641
v 0.235000 0.394641 0.145000
v 0.235000 0.450000 0.175000
v 0.235000 0.410000 0.215000
v 0.235000 0.444641 0.195000
v 0.235000 0.430000 0.209641
v -0.215000 0.400000 0.125000
v -0.215000 0.360000 0.165000
v -0.215000 0.400000 0.205000
v -0.215000 0.440000 0.165000
v -0.215000 0.394641 0.145000
v -0.215000 0.380000 0.159641
v -0.215000 0.410000 0.215000
v -0.215000 0.450000 0.175000
v -0.215000 0.430000 0.209641
v -0.215000 0.444641 0.195000
v -0.195000 0.490000 -0.185000
v -0.195000 0.450000 -0.145000
v -0.195000 0.470000 -0.179641
v -0.195000 0.455359 -0.165000
v 0.215000 0.450000 -0.145000
v 0.215000 0.490000 -0.185000
v 0.215000 0.455359 -0.165000
v 0.215000 0.470000 -0.179641
v 0.235000 0.490000 -0.185000
v 0.235000 0.450000 -0.145000
v 0.235000 0.410000 -0.185000
v 0.235000 0.450000 -0.225000
v 0.235000 0.470000 -0.179641
v 0.235000 0.455359 -0.165000
v -0.215000 0.450000 -0.145000
v -0.215000 0.490000 -0.185000
v -0.215000 0.450000 -0.225000
v -0.215000 0.410000 -0.185000
v -0.215000 0.455359 -0.165000
v -0.215000 0.470000 -0.179641
v -0.195000 0.900000 -0.275000
v -0.195000 0.890185 -0.263085
v 0.215000 0.900000 -0.275000
v 0.215000 0.890185 -0.263085
v 0.235000 0.900000 -0.275000
v 0.235000 0.890185 -0.263085
v -0.215000 0.890185 -0.263085
v -0.215000 0.900000 -0.275000
v 0.215000 0.009923 -0.233760
v 0.215000 0.000000 -0.245000
v -0.195000 0.000000 -0.245000
v -0.195000 0.009923 -0.233760
v 0.215000 0.000000 -0.275000
v 0.215000 0.009923 -0.283760
v -0.195000 0.009923 -0.283760
v -0.195000 0.000000 -0.275000
v -0.195000 0.009905 0.213624
v -0.195000 0.000000 0.225000
v 0.215000 0.009905 0.213624
v 0.215000 0.000000 0.225000
v -0.195000 0.009923 0.263760
v -0.195000 0.000000 0.255000
v 0.215000 0.000000 0.255000
v 0.215000 0.009923 0.263760
v 0.235000 0.000000 0.225000
v 0.235000 0.009905 0.213624
v 0.235000 0.009923 0.263760
v 0.235000 0.000000 0.255000
v -0.215000 0.009905 0.213624
v -0.215000 0.000000 0.225000
v -0.215000 0.000000 0.255000
v -0.215000 0.009923 0.263760
vn -0.0000 -1.0000 -0.0000
vn -0.0000 -0.0000 -1.0000
vn -0.0000 -0.1104 -0.9939
vn 1.0000 -0.0000 -0.0000
vn -1.0000 -0.0000 -0.0000
vn -0.0000 -0.9659 -0.2588
vn -0.0000 -0.7071 -0.7071
vn -0.0000 -0.2588 -0.9659
vn -0.0000 0.9659 0.2588
vn -0.0000 0.7071 0.7071
vn -0.0000 0.2588 0.9659
vn -0.0000 -0.0000 1.0000
vn -0.0000 1.0000 -0.0000
vn -0.0000 0.7719 0.6358
vn -0.0000 0.1915 0.9815
vn -0.0000 -0.7497 0.6618
vn -0.0000 -0.6618 -0.7497
vn -0.0000 -0.7542 -0.6567
vn -0.0000 -0.6618 0.7497
vn -0.0000 -0.1240 0.9923
vn -0.0000 0.1240 -0.9923
vn -0.0000 -0.1376 -0.9905
vn -0.0000 0.1240 0.9923
vt 0.375000 0.250000
vt 0.375000 0.500000
vt 0.625000 0.500000
vt 0.625000 0.250000
vt 0.375000 0.750000
vt 0.375000 0.750000
vt 0.375000 0.746739
vt 0.375000 0.724492
vt 0.575000 0.750000
vt 0.375000 0.024469
vt 0.375000 0.000000
vt 0.375000 0.000000
vt 0.548077 0.000000
vt 0.125000 0.721429
vt 0.375000 0.721429
vt 0.375000 0.735714
vt 0.125000 0.735714
vt 0.125000 0.750000
vt 0.375000 0.750000
vt 0.125000 0.750000
vt 0.125000 0.721429
vt 0.625000 0.750000
vt 0.875000 0.750000
vt 0.875000 0.750000
vt 0.625000 0.750000
vt 0.625000 1.000000
vt 0.525000 1.000000
vt 0.525000 0.750000
vt 0.425000 1.000000
vt 0.425000 0.750000
vt 0.425000 0.750000
vt 0.525000 0.750000
vt 0.608633 0.750000
vt 0.625000 0.750000
vt 0.425000 1.000000
vt 0.525000 1.000000
vt 0.875000 0.750000
vt 0.125000 0.500000
vt 0.375000 1.000000
vt 0.625000 0.750000
vt 0.625000 0.000000
vt 0.425000 0.000000
vt 0.525000 0.000000
vt 0.598205 0.000000
vt 0.625000 0.500000
vt 0.625000 0.503261
vt 0.625000 0.525411
vt 0.425000 0.500000
vt 0.625000 0.221429
vt 0.625000 0.235714
vt 0.625000 0.246172
vt 0.425000 0.250000
vt 0.875000 0.528572
vt 0.625000 0.528572
vt 0.625000 0.514286
vt 0.875000 0.514286
vt 0.875000 0.500000
vt 0.625000 0.500000
vt 0.875000 0.528571
vt 0.875000 0.514286
vt 0.875000 0.500000
vt 0.875000 0.500000
vt 0.875000 0.500000
vt 0.375000 0.500000
vt 0.125000 0.750000
vt 0.125000 0.750000
vt 0.375000 1.000000
s 0
f 6/1/1 2/1/1 19/1/1 22/1/1
f 7/2/2 8/3/2 15/3/2 16/2/2
f 6/1/2 5/4/2 8/3/2 7/2/2
f 8/3/3 5/4/3 9/4/3 10/3/3
f 4/2/1 7/2/1 16/2/1 13/2/1
f 8/3/3 10/3/3 17/3/3 15/3/3
f 5/4/2 6/1/2 22/1/2 21/4/2
f 9/4/3 5/4/3 21/4/3 23/4/3
f 41/5/4 45/6/4 46/7/4 42/8/4 43/9/4 44/5/4
f 51/10/5 55/11/5 56/11/5 52/12/5 53/11/5 54/13/5
f 26/14/6 29/15/6 31/16/6 28/17/6
f 28/17/7 31/16/7 32/5/7 27/18/7
f 27/18/8 32/5/8 30/19/8 25/20/8
f 41/5/8 30/19/8 32/5/8 45/6/8
f 45/6/7 32/5/7 31/16/7 46/7/7
f 46/7/6 31/16/6 29/15/6 42/8/6
f 51/21/6 26/14/6 28/17/6 55/17/6
f 55/17/7 28/17/7 27/18/7 56/20/7
f 56/20/8 27/18/8 25/20/8 52/20/8
f 38/22/9 33/23/9 35/24/9 40/25/9
f 40/25/10 35/26/10 36/27/10 39/28/10
f 39/28/11 36/27/11 34/29/11 37/30/11
f 37/30/11 48/31/11 50/32/11 39/28/11
f 39/28/10 50/32/10 49/33/10 40/25/10
f 40/25/9 49/33/9 47/34/9 38/22/9
f 57/35/11 34/29/11 36/27/11 59/36/11
f 59/36/10 36/27/10 35/26/10 60/26/10
f 60/37/9 35/24/9 33/23/9 58/37/9
f 2/38/1 26/14/1 51/21/1 19/38/1
f 2/38/1 4/2/1 29/15/1 26/14/1
f 29/15/1 4/2/1 13/2/1 42/8/1
f 11/39/12 34/29/12 57/35/12 24/39/12
f 12/5/12 37/30/12 34/29/12 11/39/12
f 3/40/13 1/37/13 33/23/13 38/22/13
f 33/23/13 1/37/13 20/37/13 58/37/13
f 37/30/12 12/5/12 18/5/12 48/31/12
f 3/40/13 38/22/13 47/34/13 14/40/13
f 44/5/4 43/9/4 14/40/4 47/34/4 49/33/4 50/32/4 48/31/4 18/5/4
f 20/41/5 54/13/5 53/11/5 24/11/5 57/42/5 59/43/5 60/44/5 58/41/5
f 69/45/4 73/3/4 74/46/4 70/47/4 71/48/4 72/45/4
f 75/49/5 79/50/5 80/51/5 76/4/5 77/4/5 78/52/5
f 62/53/9 65/54/9 67/55/9 64/56/9
f 64/56/10 67/55/10 68/45/10 63/57/10
f 63/57/11 68/45/11 66/58/11 61/57/11
f 65/54/9 70/47/9 74/46/9 67/55/9
f 67/55/10 74/46/10 73/3/10 68/45/10
f 68/45/11 73/3/11 69/45/11 66/58/11
f 75/59/9 62/53/9 64/56/9 79/60/9
f 79/60/10 64/56/10 63/57/10 80/57/10
f 80/57/11 63/57/11 61/57/11 76/61/11
f 1/37/13 62/53/13 75/59/13 20/37/13
f 65/54/13 62/53/13 1/37/13 3/40/13
f 65/54/13 3/40/13 14/40/13 70/47/13
f 72/45/4 71/48/4 13/2/4 16/2/4 15/3/4
f 13/2/4 71/48/4 70/47/4 14/40/4 43/9/4 42/8/4
f 51/10/5 54/13/5 20/41/5 75/49/5 78/52/5 19/1/5
f 19/1/5 78/52/5 77/4/5 21/4/5 22/1/5
f 85/3/14 83/3/14 84/58/14 86/45/14
f 82/62/14 84/58/14 83/3/14 81/63/14
f 81/63/14 88/57/14 87/61/14 82/62/14
f 61/57/15 66/58/15 84/58/15 82/62/15
f 81/63/13 83/3/13 10/3/13 9/63/13
f 81/63/13 9/63/13 23/63/13 88/57/13
f 61/57/15 82/62/15 87/61/15 76/61/15
f 84/58/15 66/58/15 69/45/15 86/45/15
f 10/3/13 83/3/13 85/3/13 17/3/13
f 69/45/4 72/45/4 15/3/4 17/3/4 85/3/4 86/45/4
f 21/4/5 77/4/5 76/4/5 87/4/5 88/4/5 23/4/5
f 89/2/16 92/38/16 91/38/16 90/64/16
f 93/2/17 96/38/17 95/38/17 94/2/17
f 98/20/18 110/65/18 109/66/18 97/66/18
f 97/66/18 99/6/18 100/5/18 98/20/18
f 102/20/19 103/19/19 104/5/19 101/18/19
f 103/19/19 108/19/19 107/6/19 104/5/19
f 105/5/18 100/5/18 99/6/18 106/5/18
f 111/18/19 102/20/19 101/18/19 112/20/19
f 4/2/20 2/38/20 92/38/20 89/2/20
f 90/64/1 91/38/1 96/38/1 93/2/1
f 7/2/4 4/2/4 89/2/4 90/64/4 93/2/4 94/2/4
f 2/1/5 6/1/5 95/1/5 96/1/5 91/1/5 92/1/5
f 6/1/21 7/2/21 94/2/21 95/1/21
f 25/20/22 97/66/22 109/66/22 52/20/22
f 98/20/1 100/5/1 103/19/1 102/20/1
f 98/20/1 102/20/1 111/18/1 110/65/1
f 25/20/22 30/19/22 99/6/22 97/66/22
f 103/19/1 100/5/1 105/5/1 108/19/1
f 99/6/22 30/19/22 41/5/22 106/5/22
f 101/67/23 11/39/23 24/39/23 112/39/23
f 12/5/23 11/39/23 101/67/23 104/5/23
f 12/5/23 104/5/23 107/6/23 18/5/23
f 41/5/4 44/5/4 18/5/4 107/6/4 108/19/4 105/5/4 106/5/4
f 24/11/5 53/11/5 52/12/5 109/11/5 110/11/5 111/11/5 112/11/5
