# Blender 4.5.0
# www.blender.org
mtllib object.mtl
o Cube
v -0.000090 0.062851 0.294968
v -0.000090 1.062851 0.294968
v -0.000090 0.062851 -0.705032
v -0.000090 1.062851 -0.705032
v 1.999910 -0.437149 0.794968
v 1.999910 1.562851 0.794968
v 1.999910 -0.437149 -1.205032
v 1.999910 1.562851 -1.205032
v -0.000090 2.385865 0.794968
v -0.000090 2.385865 -1.205032
v 1.999910 2.385865 -1.205032
v 1.999910 2.385865 0.794968
v 2.000043 1.562851 -1.205032
v 2.000043 1.562851 0.794968
v 2.000043 2.385865 -1.205032
v 2.000043 2.385865 0.794968
v 1.985793 1.562851 -1.205032
v 1.985793 1.562851 0.794968
v 1.985793 2.385865 -1.205032
v 1.985793 2.385865 0.794968
v 1.999910 1.562851 3.944110
v -0.000090 1.562851 3.944110
v 1.999910 2.385865 3.944110
v -0.000090 2.385865 3.944110
v 5.134935 1.562851 -1.205032
v 5.134935 1.562851 0.794968
v 5.134935 2.385865 -1.205032
v 5.134935 2.385865 0.794968
v -0.000090 -0.437149 -1.205032
v -0.000090 -0.437149 0.794968
v -0.000090 1.562851 0.794968
v -0.000090 1.562851 -1.205032
v -0.000090 -0.437149 -1.205032
v -0.000090 -0.437149 0.794968
v -0.000090 1.562851 0.794968
v -0.000090 1.562851 -1.205032
v 0.792524 0.062851 -0.705032
v 0.792524 0.062851 0.294968
v 0.792524 1.062851 0.294968
v 0.792524 1.062851 -0.705032
v -0.000090 2.931079 0.794968
v 0.199910 3.131079 0.594968
v 0.199910 3.131079 -1.005032
v -0.000090 2.931079 -1.205032
v 1.799910 3.131079 -1.005032
v 1.999910 2.931079 -1.205032
v 1.799910 3.131079 0.594968
v 1.999910 2.931079 0.794968
v 0.883406 2.385865 2.320340
v 1.285686 2.385865 2.709340
v 0.522451 2.385865 2.814867
v 0.480939 2.385865 1.931160
v 1.195807 2.385865 1.891700
v 0.480939 3.794114 1.931160
v 0.883406 3.794114 2.320340
v 1.195807 3.794114 1.891700
v 0.883406 3.800132 2.320340
v 1.285686 3.800132 2.709340
v 0.522451 3.800132 2.814867
vn -0.0000 1.0000 -0.0000
vn -0.0000 -0.0000 -1.0000
vn 1.0000 -0.0000 -0.0000
vn -0.0000 -0.0000 1.0000
vn -0.0000 -1.0000 -0.0000
vn -1.0000 -0.0000 -0.0000
vn -0.7071 0.7071 -0.0000
vn -0.0000 0.7071 -0.7071
vn 0.7071 0.7071 -0.0000
vn -0.0000 0.7071 0.7071
vn -0.0551 -0.0000 -0.9985
vn -0.8077 -0.0000 -0.5896
vn 0.8081 -0.0000 0.5890
vn -0.6951 -0.0000 0.7189
vn 0.1370 -0.0000 0.9906
vn 0.6951 -0.0000 -0.7189
vt 0.437500 0.187500
vt 0.437500 0.062500
vt 0.375000 0.250000
vt 0.625000 0.250000
vt 0.625000 0.500000
vt 0.375000 0.500000
vt 0.625000 0.750000
vt 0.375000 0.750000
vt 0.625000 1.000000
vt 0.375000 1.000000
vt 0.125000 0.500000
vt 0.125000 0.750000
vt 0.625000 0.000000
vt 0.725513 0.750000
vt 0.764563 0.750000
vt 0.714278 0.750000
vt 0.375000 0.000000
vt 0.000000 0.000000
vt 0.562500 0.062500
vt 0.562500 0.187500
vt 0.850000 0.725000
vt 0.850000 0.525000
vt 0.875000 0.500000
vt 0.875000 0.750000
vt 0.650000 0.525000
vt 0.650000 0.725000
vt 0.625000 0.750000
vt 0.875000 0.750000
vt 0.814871 0.750000
vt 0.809682 0.750000
s 0
f 3/1/1 1/2/1 38/2/1 37/1/1
f 29/3/2 32/4/2 8/5/2 7/6/2
f 7/6/3 8/5/3 6/7/3 5/8/3
f 5/8/4 6/7/4 31/9/4 30/10/4
f 29/11/5 7/6/5 5/8/5 30/12/5
f 8/5/2 11/5/2 15/5/2 13/5/2
f 32/4/6 31/13/6 9/13/6 10/4/6
f 18/7/5 17/5/5 25/5/5 26/7/5
f 8/5/2 32/4/2 10/4/2 11/5/2
f 16/7/2 14/7/2 18/7/2 20/7/2
f 11/5/1 12/7/1 16/7/1 15/5/1
f 6/7/5 8/5/5 13/5/5 14/7/5
f 12/7/4 6/7/4 14/7/4 16/7/4
f 17/5/2 19/5/2 27/5/2 25/5/2
f 15/5/5 16/7/5 20/7/5 19/5/5
f 13/5/4 15/5/4 19/5/4 17/5/4
f 14/7/1 13/5/1 17/5/1 18/7/1
f 22/9/4 21/7/4 23/7/4 24/9/4
f 26/7/3 25/5/3 27/5/3 28/7/3
f 6/7/3 12/7/3 23/7/3 21/7/3
f 12/7/1 53/14/1 49/15/1 50/16/1 23/7/1
f 31/9/5 6/7/5 21/7/5 22/9/5
f 20/7/4 18/7/4 26/7/4 28/7/4
f 19/5/1 20/7/1 28/7/1 27/5/1
f 9/13/6 31/13/6 22/13/6 24/13/6
f 34/17/1 33/3/1 29/3/1 30/17/1
f 35/18/1 34/18/1 30/18/1 31/18/1
f 36/4/1 35/13/1 31/13/1 32/4/1
f 33/18/1 36/18/1 32/18/1 29/18/1
f 1/2/6 3/1/6 33/3/6 34/17/6
f 2/19/6 1/2/6 34/17/6 35/13/6
f 4/20/6 2/19/6 35/13/6 36/4/6
f 3/1/6 4/20/6 36/4/6 33/3/6
f 38/2/6 39/19/6 40/20/6 37/1/6
f 4/20/4 3/1/4 37/1/4 40/20/4
f 1/2/2 2/19/2 39/19/2 38/2/2
f 2/19/5 4/20/5 40/20/5 39/19/5
f 42/21/7 43/22/7 44/23/7 41/24/7
f 43/22/8 45/25/8 46/5/8 44/23/8
f 45/25/9 47/26/9 48/27/9 46/5/9
f 47/26/10 42/21/10 41/24/10 48/27/10
f 10/4/6 9/13/6 41/13/6 44/4/6
f 45/25/1 43/22/1 42/21/1 47/26/1
f 9/28/4 12/7/4 48/27/4 41/24/4
f 11/5/2 10/4/2 44/4/2 46/5/2
f 12/7/3 11/5/3 46/5/3 48/27/3
f 54/29/1 55/15/1 56/14/1
f 23/7/1 50/16/1 51/30/1 24/28/1
f 24/28/1 51/30/1 49/15/1 52/29/1 9/28/1
f 9/28/1 52/29/1 53/14/1 12/7/1
f 53/14/11 52/29/11 54/29/11 56/14/11
f 49/15/12 51/30/12 59/30/12 57/15/12
f 49/15/13 53/14/13 56/14/13 55/15/13
f 52/29/14 49/15/14 55/15/14 54/29/14
f 59/30/1 58/16/1 57/15/1
f 51/30/15 50/16/15 58/16/15 59/30/15
f 50/16/16 49/15/16 57/15/16 58/16/16
